<?xml version="1.0" encoding="iso-8859-1"?>
<!-- Generator: Adobe Illustrator 19.1.0, SVG Export Plug-In . SVG Version: 6.00 Build 0)  -->
<svg version="1.1" id="Capa_1" xmlns="http://www.w3.org/2000/svg" xmlns:xlink="http://www.w3.org/1999/xlink" x="0px" y="0px"
	 viewBox="0 0 324.247 324.247" style="enable-background:new 0 0 324.247 324.247;" xml:space="preserve">
<g>
	<path d="M306.573,167.194c6.555-6.562,6.555-17.23,0-23.786L167.933,4.762c-6.35-6.356-17.43-6.343-23.786,0l-15.842,15.836
		l-2.59-2.596c-3.766-3.766-9.865-3.766-13.631,0c-3.766,3.76-3.766,9.872,0,13.631l2.59,2.596L100.059,48.85
		c-6.555,6.562-6.555,17.224,0,23.786l138.646,138.64c3.175,3.175,7.391,4.929,11.89,4.929s8.708-1.748,11.89-4.929l14.621-14.615
		l4.467,4.467L240.801,241.9l-82.469-82.469l-30.669,30.669l-7.976-7.976c-4.91-4.917-11.44-7.616-18.381-7.616
		s-13.471,2.699-18.374,7.609c-5.926,5.926-8.528,14.216-7.224,22.372l-57.302,57.302c-3.638,3.638-5.649,8.483-5.649,13.631
		c0,5.154,2.012,10,5.649,13.631l29.538,29.544c3.638,3.638,8.483,5.649,13.631,5.649c5.154,0,10-2.012,13.631-5.649l57.302-57.302
		c1.362,0.212,2.738,0.321,4.12,0.321c6.902,0,13.394-2.68,18.265-7.545c10.129-10.135,10.129-26.633,0-36.768l-13.58-13.58
		l17.031-17.031l82.456,82.469l68.034-68.034l-18.098-18.104L306.573,167.194z M145.793,244.984
		c-2.442,2.436-5.701,3.779-9.178,3.779c-1.414,0-2.815-0.219-4.152-0.656l-3.74-1.208l-62.617,62.61
		c-2.423,2.423-6.645,2.423-9.081,0l-29.538-29.551c-1.215-1.208-1.883-2.815-1.883-4.537c0-1.716,0.668-3.329,1.883-4.544
		l62.61-62.61l-1.208-3.74c-1.536-4.749-0.341-9.859,3.123-13.323c2.481-2.481,5.778-3.843,9.287-3.843s6.812,1.369,9.293,3.85
		l35.2,35.187C150.915,231.527,150.915,239.856,145.793,244.984z M253.391,202.188c-1.491,1.497-4.107,1.485-5.598,0L109.147,63.549
		c-1.542-1.542-1.542-4.062,0-5.611l44.088-44.088c0.746-0.752,1.742-1.163,2.809-1.163c1.067,0,2.057,0.411,2.809,1.163
		l4.409,4.409c-3.965,15.187-6.697,33.734,1.015,40.849c13.921,12.854,39.049,12.854,39.049,12.854s4.544,24.981,15.264,36.055
		c10.707,11.073,39.628,11.073,39.628,11.073s-21.427,28.921-13.921,37.488c7.494,8.561,38.561-6.427,38.561-6.427l8.483-3.811
		l6.138,6.138c1.555,1.549,1.555,4.068,0.013,5.617L253.391,202.188z"/>
</g>
<g>
</g>
<g>
</g>
<g>
</g>
<g>
</g>
<g>
</g>
<g>
</g>
<g>
</g>
<g>
</g>
<g>
</g>
<g>
</g>
<g>
</g>
<g>
</g>
<g>
</g>
<g>
</g>
<g>
</g>
</svg>
